<?xml version="1.0" encoding="UTF-8"?>
<svg id="Layer_1" xmlns="http://www.w3.org/2000/svg" version="1.1" viewBox="0 0 1909 507.51">
  <!-- Generator: Adobe Illustrator 29.3.1, SVG Export Plug-In . SVG Version: 2.1.0 Build 151)  -->
  <defs>
    <style>
      .st0 {
        fill: #cbff01;
      }
    </style>
  </defs>
  <path class="st0" d="M229.28,185.69l-97.32-16.72c-47.17-10.15-67.47-21.5-67.47-56.13s28.66-53.74,101.5-53.74c82.99,0,112.25,24.48,112.25,73.44v7.76h63.89v-3.58C342.12,58.51,288.98,0,171.96,0,47.77,0,0,58.51,0,116.43c0,65.68,47.77,96.73,115.23,108.67l97.92,16.12c50.75,9.55,71.05,22.69,71.05,57.32,0,37.62-26.87,54.33-103.29,54.33-87.77,0-115.83-23.88-115.83-71.65v-9.55H.6v3.58c0,84.19,60.9,136.73,180.32,136.73s167.78-56.13,167.78-117.03-39.41-94.94-119.42-109.26Z"/>
  <path class="st0" d="M472.89,44.18h-63.89v65.08h-50.15v53.74h50.15v142.7c0,72.25,39.41,100.31,103.29,100.31h68.07v-57.92h-53.73c-37.02,0-53.74-9.55-53.74-45.98v-139.12h107.47v-53.74h-107.47V44.18Z"/>
  <path class="st0" d="M777.41,103.29c-60.9,0-93.14,38.21-102.1,85.98h-4.18v-80.01h-59.11v296.75h64.49v-166.58c0-53.14,20.9-81.2,71.65-81.2,44.18,0,62.1,19.7,62.1,62.1v26.27h63.89v-38.81c0-56.13-29.26-104.49-96.73-104.49Z"/>
  <path class="st0" d="M1280.15,103.29c-69.86,0-111.65,33.44-123.59,88.37h-5.37v-82.4h-59.11v398.25h64.49v-185.09h2.39c11.94,54.33,54.93,89.56,121.8,89.56,92.55,0,143.3-62.1,143.3-154.04s-51.95-154.64-143.9-154.64ZM1258.65,353.47c-63.29,0-102.1-29.85-102.1-90.76v-5.37c0-63.89,37.02-94.93,103.29-94.93,62.1,0,99.71,23.88,99.71,95.53s-37.02,95.53-100.9,95.53Z"/>
  <path class="st0" d="M1640.19,266.3l-28.06,71.65h-4.78l-29.26-71.05-75.83-157.63h-72.25l146.28,296.75-7.16,15.52c-8.96,20.3-19.7,27.47-45.98,27.47h-57.92v58.51h42.39c60.9,0,94.34-16.12,118.82-69.26l154.64-328.99h-71.05l-69.86,157.03Z"/>
  <path class="st0" d="M1865.69,62.13v-.63c7.01-.32,12.74-4.14,12.74-12.42,0-9.56-6.37-14.01-18.79-14.01h-29.62v44.58h10.51v-15.6h12.1c5.73,0,7.32,1.59,10.19,7.01l5.09,8.6h12.1l-6.05-9.56c-2.86-4.77-4.46-6.69-8.28-7.96ZM1860.6,56.08h-20.06v-11.78h20.06c5.41,0,7.32.95,7.32,6.05,0,4.14-1.91,5.73-7.32,5.73Z"/>
  <path class="st0" d="M1853.27,6.72c-34.08,0-55.73,22.61-55.73,51.27s21.65,51.27,55.73,51.27,55.73-22.61,55.73-51.27-21.65-51.27-55.73-51.27ZM1853.27,97.17c-24.84,0-42.68-10.83-42.68-39.17s17.84-39.17,42.68-39.17,42.99,10.51,42.99,39.17-17.83,39.17-42.99,39.17Z"/>
  <path class="st0" d="M1047.89,117.94l.1-91.48c0-2.4-.94-4.67-2.65-6.38l-5.94-5.94c-1.87-1.89-4.11-3.39-6.68-4.47-2.53-1.04-5.18-1.56-7.88-1.56-4.97,0-9.01,4.04-9.01,9.01v21.03l-5.36-5.36c-1.1-1.1-2.6-1.72-4.13-1.72h-13.5c-1.53,0-3.03.63-4.13,1.72l-13.72,13.72-13.72-13.72c-1.1-1.1-2.6-1.72-4.13-1.72h-13.5c-1.53,0-3.04.63-4.13,1.72l-5.36,5.36v-21.03c0-4.97-4.04-9.01-9.01-9.01-2.7,0-5.36.53-7.9,1.57-2.56,1.07-4.8,2.58-6.66,4.45l-5.95,5.95c-1.71,1.71-2.65,3.97-2.65,6.38l.1,91.48c18.11.78,32.17,15.43,32.17,33.62v211.02c0,18.2-14.08,32.85-32.17,33.62l-.1,91.49c0,2.4.94,4.66,2.65,6.38l5.94,5.94c1.87,1.88,4.11,3.38,6.68,4.47,2.53,1.04,5.18,1.56,7.88,1.56,4.97,0,9.01-4.04,9.01-9.01v-21.03l5.36,5.36c1.1,1.1,2.6,1.73,4.13,1.73h13.5c1.53,0,3.03-.63,4.13-1.73l13.72-13.72,13.72,13.72c1.1,1.1,2.6,1.73,4.13,1.73h13.5c1.53,0,3.03-.63,4.13-1.73l5.36-5.36v21.03c0,4.97,4.04,9.01,9.01,9.01,2.7,0,5.36-.53,7.9-1.57,2.56-1.08,4.8-2.58,6.66-4.45l5.95-5.95c1.71-1.71,2.65-3.97,2.65-6.38l-.1-91.48c-18.11-.78-32.17-15.43-32.17-33.62v-211.02c0-18.2,14.08-32.85,32.17-33.62Z"/>
</svg>